<?xml version="1.0" encoding="UTF-8"?><svg id="Ebene_1" xmlns="http://www.w3.org/2000/svg" viewBox="0 0 1758.43 409.25"><defs><style>.cls-1{fill:#0aaf22;}.cls-2{fill:#1a73e8;}.cls-3{fill:#3c4043;}.cls-4{fill:#ea2533;}</style></defs><path class="cls-3" d="M448.95,338.67c-12.74,0-24.18-1.5-34.32-4.48-10.14-2.99-19.5-6.69-28.08-11.12l.39-46.41h3.9l13.26,23.4c5.72,10.4,12.02,18.13,18.92,23.2,6.89,5.07,15.66,7.6,26.33,7.6,12.48,0,22.55-2.79,30.22-8.38,7.67-5.59,11.5-13.06,11.5-22.42,0-8.58-2.73-15.6-8.19-21.06s-15.6-10.4-30.42-14.82l-16.38-5.07c-15.86-4.68-28.34-11.96-37.44-21.84-9.1-9.88-13.65-21.97-13.65-36.27,0-17.16,6.76-31.72,20.28-43.68,13.52-11.96,32.89-17.94,58.11-17.94,10.14,0,19.69,1.11,28.67,3.32,8.97,2.21,17.61,5.53,25.93,9.94l-2.34,42.12h-3.9l-13.65-24.18c-4.94-8.58-9.82-14.62-14.62-18.13-4.81-3.51-12.03-5.27-21.65-5.27-8.84,0-17.16,2.47-24.96,7.41-7.8,4.94-11.7,11.96-11.7,21.06s3.32,15.86,9.95,21.06c6.63,5.2,16.44,10.01,29.45,14.43l17.55,5.07c18.72,5.72,32.11,13.59,40.17,23.59,8.06,10.01,12.09,22.04,12.09,36.08,0,18.98-7.48,34.19-22.42,45.63-14.95,11.44-35.95,17.16-62.99,17.16Z"/><path class="cls-3" d="M649.4,139.38c16.9,0,31.33,3.45,43.29,10.33,11.96,6.89,21.12,16.25,27.5,28.08,6.37,11.83,9.55,25.29,9.55,40.37,0,2.86-.13,5.79-.39,8.78-.26,2.99-.78,5.65-1.56,7.99h-116.22c.26,28.08,5.26,48.3,15.01,60.64,9.75,12.35,24.24,18.53,43.49,18.53,13,0,23.53-2.08,31.59-6.24,8.06-4.16,15.6-10.27,22.62-18.33l3.9,3.51c-8.06,14.3-18.79,25.48-32.18,33.54-13.39,8.06-29.44,12.09-48.17,12.09s-34.84-3.97-49.14-11.89c-14.3-7.93-25.48-19.31-33.54-34.12-8.06-14.82-12.09-32.5-12.09-53.04s4.68-39.45,14.04-54.4c9.36-14.95,21.38-26.33,36.08-34.12,14.69-7.8,30.09-11.7,46.21-11.7ZM648.23,147.18c-7.54,0-13.98,2.28-19.31,6.83-5.33,4.55-9.49,12.61-12.48,24.18-2.99,11.57-4.62,27.88-4.88,48.94h66.69c2.6-28.34,1.56-48.75-3.12-61.23-4.68-12.48-13.65-18.72-26.91-18.72Z"/><path class="cls-3" d="M847.91,338.67c-19.76,0-36.92-4.1-51.48-12.29-14.56-8.19-25.81-19.82-33.74-34.9-7.93-15.08-11.89-32.76-11.89-53.04s4.22-37.83,12.67-52.65c8.45-14.82,20.02-26.26,34.71-34.32,14.69-8.06,31.26-12.09,49.72-12.09s34.97,3.97,49.53,11.9c14.56,7.93,26.06,19.3,34.51,34.12,8.45,14.82,12.68,32.5,12.68,53.04s-3.97,38.29-11.89,53.24c-7.93,14.95-19.11,26.52-33.54,34.71s-31.53,12.29-51.29,12.29ZM847.91,330.87c9.1,0,16.38-2.6,21.84-7.8,5.46-5.2,9.42-14.43,11.9-27.69,2.47-13.26,3.71-31.98,3.71-56.16s-1.24-43.29-3.71-56.55c-2.47-13.26-6.44-22.49-11.9-27.69-5.46-5.2-12.74-7.8-21.84-7.8s-16.45,2.6-22.04,7.8c-5.59,5.2-9.62,14.43-12.09,27.69-2.47,13.26-3.71,32.11-3.71,56.55s1.23,42.9,3.71,56.16c2.47,13.26,6.5,22.49,12.09,27.69,5.59,5.2,12.93,7.8,22.04,7.8Z"/><path class="cls-3" d="M971.4,332.82v-2.2l3.08-.88c2.78-.73,4.73-1.98,5.83-3.74,1.1-1.76,1.72-4.1,1.87-7.04v-68.86c0-3.22-.52-5.61-1.54-7.15-1.03-1.54-3.01-2.6-5.94-3.19l-3.3-.88v-2.2l37.62-12.76,2.2,2.2,1.76,14.96c4.84-4.84,10.37-8.95,16.61-12.32,6.23-3.37,12.72-5.06,19.47-5.06s12.68,1.43,16.94,4.29c4.25,2.86,7.48,7.3,9.68,13.31,5.72-5.42,11.92-9.71,18.59-12.87,6.67-3.15,13.16-4.73,19.47-4.73,10.41,0,18.07,2.5,22.99,7.48,4.91,4.99,7.37,12.84,7.37,23.54v64.46c0,5.72,2.64,9.32,7.92,10.78l2.42.66v2.2h-50.82v-2.2l2.2-.66c2.78-.88,4.73-2.2,5.83-3.96,1.1-1.76,1.65-4.1,1.65-7.04v-67.32c0-6.16-1.1-10.37-3.3-12.65-2.2-2.27-5.72-3.41-10.56-3.41-3.82,0-7.52.85-11.11,2.53-3.6,1.69-7.37,4.22-11.33,7.59.73,2.35,1.21,4.92,1.43,7.7.22,2.79.33,5.72.33,8.8v56.98c.14,5.72,2.78,9.32,7.92,10.78l1.98.66v2.2h-51.04v-2.2l3.08-.88c2.78-.88,4.73-2.16,5.83-3.85,1.1-1.68,1.65-3.99,1.65-6.93v-67.1c0-5.86-1.07-10.04-3.19-12.54-2.13-2.49-5.76-3.74-10.89-3.74-3.38,0-6.75.85-10.12,2.53-3.38,1.69-6.9,4.15-10.56,7.37v73.7c0,5.72,2.56,9.32,7.7,10.78l1.98.66v2.2h-51.7Z"/><path class="cls-3" d="M1199.32,336.12c-8.51,0-15.66-2.42-21.45-7.26-5.8-4.84-8.69-11.8-8.69-20.9,0-6.89,3.52-13.23,10.56-19.03,7.04-5.79,18.11-10.15,33.22-13.09,2.34-.44,4.98-.91,7.92-1.43,2.93-.51,6.01-1.06,9.24-1.65v-17.38c0-9.97-1.21-16.97-3.63-21.01-2.42-4.03-6.2-6.05-11.33-6.05-3.52,0-6.31,1.14-8.36,3.41-2.06,2.28-3.38,6.2-3.96,11.77l-.44,2.42c-.29,6.31-1.83,10.93-4.62,13.86-2.79,2.94-6.24,4.4-10.34,4.4-3.82,0-6.97-1.17-9.46-3.52-2.5-2.34-3.74-5.5-3.74-9.46,0-6.01,2.09-11.07,6.27-15.18,4.18-4.1,9.71-7.18,16.61-9.24,6.89-2.05,14.37-3.08,22.44-3.08,13.05,0,23.13,3.19,30.25,9.57,7.11,6.38,10.67,16.76,10.67,31.13v48.62c0,6.6,3.08,9.9,9.24,9.9h4.84l1.98,1.76c-2.79,3.52-5.83,6.24-9.13,8.14-3.3,1.9-7.96,2.86-13.97,2.86-6.46,0-11.55-1.51-15.29-4.51-3.74-3-6.2-7-7.37-11.99-4.4,4.7-8.91,8.69-13.53,11.99-4.62,3.3-10.6,4.95-17.93,4.95ZM1212.74,322.7c2.93,0,5.68-.69,8.25-2.09,2.56-1.39,5.61-3.55,9.13-6.49v-36.96c-1.47.29-2.94.59-4.4.88-1.47.3-3.16.59-5.06.88-6.75,1.76-12.14,4.73-16.17,8.91-4.04,4.18-6.05,9.79-6.05,16.83,0,6.02,1.39,10.53,4.18,13.53,2.78,3.01,6.16,4.51,10.12,4.51Z"/><path class="cls-3" d="M1324.71,336.12c-7.19,0-13.64-.84-19.36-2.53-5.72-1.68-11-3.77-15.84-6.27l.22-26.18h2.2l7.48,13.2c3.22,5.87,6.78,10.23,10.67,13.09,3.88,2.86,8.83,4.29,14.85,4.29,7.04,0,12.72-1.57,17.05-4.73,4.32-3.15,6.49-7.37,6.49-12.65,0-4.84-1.54-8.8-4.62-11.88s-8.8-5.86-17.16-8.36l-9.24-2.86c-8.95-2.64-15.99-6.74-21.12-12.32-5.14-5.57-7.7-12.39-7.7-20.46,0-9.68,3.81-17.89,11.44-24.64,7.62-6.74,18.55-10.12,32.78-10.12,5.72,0,11.11.63,16.17,1.87,5.06,1.25,9.93,3.12,14.63,5.61l-1.32,23.76h-2.2l-7.7-13.64c-2.79-4.84-5.54-8.25-8.25-10.23-2.71-1.98-6.79-2.97-12.21-2.97-4.99,0-9.68,1.4-14.08,4.18-4.4,2.79-6.6,6.75-6.6,11.88s1.87,8.95,5.61,11.88c3.74,2.94,9.27,5.65,16.61,8.14l9.9,2.86c10.56,3.23,18.11,7.67,22.66,13.31,4.54,5.65,6.82,12.43,6.82,20.35,0,10.71-4.22,19.29-12.65,25.74-8.44,6.45-20.28,9.68-35.53,9.68Z"/><path class="cls-3" d="M1429.87,336.12c-9.39,0-16.69-2.35-21.89-7.04-5.21-4.69-7.81-12.17-7.81-22.44v-75.24h-15.18v-2.2l5.28-.88c4.54-1.03,8.47-2.49,11.77-4.4,3.3-1.9,6.56-4.47,9.79-7.7l18.04-20.02h2.2l-.66,30.8h24.64v4.4h-24.86v79.2c0,5.14,1.13,9.02,3.41,11.66,2.27,2.64,5.17,3.96,8.69,3.96,3.08,0,5.79-.77,8.14-2.31,2.34-1.54,4.69-3.63,7.04-6.27l2.2,2.2c-2.94,4.99-6.97,8.95-12.1,11.88-5.14,2.93-11.37,4.4-18.7,4.4Z"/><path class="cls-3" d="M1527.55,223.7c9.53,0,17.67,1.95,24.42,5.83,6.74,3.89,11.91,9.17,15.51,15.84,3.59,6.68,5.39,14.27,5.39,22.77,0,1.62-.08,3.27-.22,4.95-.15,1.69-.44,3.19-.88,4.51h-65.56c.14,15.84,2.97,27.25,8.47,34.21,5.5,6.97,13.67,10.45,24.53,10.45,7.33,0,13.27-1.17,17.82-3.52,4.54-2.34,8.8-5.79,12.76-10.34l2.2,1.98c-4.55,8.07-10.6,14.38-18.15,18.92-7.56,4.54-16.61,6.82-27.17,6.82s-19.66-2.24-27.72-6.71c-8.07-4.47-14.38-10.89-18.92-19.25-4.55-8.36-6.82-18.33-6.82-29.92s2.64-22.25,7.92-30.69c5.28-8.43,12.06-14.85,20.35-19.25,8.28-4.4,16.97-6.6,26.07-6.6ZM1526.89,228.1c-4.26,0-7.89,1.29-10.89,3.85-3.01,2.57-5.36,7.12-7.04,13.64-1.69,6.53-2.61,15.73-2.75,27.61h37.62c1.46-15.98.88-27.5-1.76-34.54-2.64-7.04-7.7-10.56-15.18-10.56Z"/><path class="cls-3" d="M1589.37,332.82v-2.2l3.3-.88c2.93-.88,4.95-2.2,6.05-3.96,1.1-1.76,1.65-4.03,1.65-6.82v-68.86c0-3.22-.55-5.61-1.65-7.15-1.1-1.54-3.12-2.6-6.05-3.19l-3.3-.88v-2.2l37.84-12.76,2.2,2.2,1.98,18.92v1.76c2.05-4.1,4.73-7.88,8.03-11.33,3.3-3.44,6.96-6.27,11-8.47,4.03-2.2,8.03-3.3,11.99-3.3,5.57,0,9.82,1.54,12.76,4.62,2.93,3.08,4.4,6.97,4.4,11.66,0,4.99-1.43,8.84-4.29,11.55-2.86,2.72-6.27,4.07-10.23,4.07-6.16,0-11.59-3.08-16.28-9.24l-.44-.44c-1.47-2.05-3.16-3.19-5.06-3.41-1.91-.22-3.67.7-5.28,2.75-1.47,1.32-2.68,2.9-3.63,4.73-.96,1.84-1.87,3.93-2.75,6.27v61.38c0,5.87,2.56,9.54,7.7,11l7.04,1.98v2.2h-56.98Z"/><rect class="cls-4" x="78.87" y="247.14" width="64.97" height="90.9" rx="5.21" ry="5.21"/><rect class="cls-2" x="166.3" y="194.16" width="64.97" height="144.45" rx="5.22" ry="5.22"/><rect class="cls-1" x="253.73" y="142.76" width="64.97" height="195.28" rx="5.22" ry="5.22"/><path class="cls-3" d="M278.67,116.48l-12.65-40.22c-.02-.05-.04-.1-.06-.15-.09-.26-.19-.52-.3-.77-.03-.06-.05-.12-.08-.18-.15-.31-.31-.6-.49-.88-.03-.04-.06-.08-.08-.12-.16-.24-.33-.46-.51-.68-.05-.07-.11-.13-.17-.19-.2-.22-.41-.44-.63-.63-.02-.02-.04-.04-.07-.06-.24-.21-.5-.41-.77-.59-.07-.05-.15-.1-.22-.14-.22-.14-.44-.27-.68-.39-.07-.03-.13-.07-.2-.1-.3-.14-.61-.27-.92-.38-.04-.01-.08-.02-.12-.04-.29-.09-.58-.16-.88-.22-.04,0-.08-.02-.12-.03-.03,0-.06,0-.1-.01-.66-.11-1.34-.14-2.04-.08-.07,0-.15.02-.22.03-.14.02-.28.02-.42.05l-52.73,8.73c-4.42.73-7.42,4.91-6.68,9.34.66,3.98,4.1,6.79,8,6.79.44,0,.89-.04,1.34-.11l30.6-5.07c-29.99,31.56-64.1,49.75-89.02,59.76-31.67,12.73-55.83,15.44-56.07,15.47-4.46.47-7.69,4.47-7.22,8.93.44,4.17,3.96,7.27,8.07,7.27.29,0,.57-.01.86-.05,1.05-.11,26.22-2.89,59.87-16.33,28.25-11.29,67.58-32.39,101.03-70.1l8.19,26.04c1.35,4.28,5.91,6.65,10.18,5.31,4.28-1.35,6.66-5.9,5.31-10.18Z"/></svg>